<svg xmlns="http://www.w3.org/2000/svg" xmlns:xlink="http://www.w3.org/1999/xlink" width="500" zoomAndPan="magnify" viewBox="0 0 375 149.999998" height="200" preserveAspectRatio="xMidYMid meet" version="1.0"><defs><g/><clipPath id="2e38c51d8d"><path d="M 63.699219 25.777344 L 375 25.777344 L 375 110.421875 L 63.699219 110.421875 Z M 63.699219 25.777344 " clip-rule="nonzero"/></clipPath><clipPath id="a13b0df752"><path d="M 72.097656 33.820312 L 219.121094 33.820312 L 219.121094 102.878906 L 72.097656 102.878906 Z M 72.097656 33.820312 " clip-rule="nonzero"/></clipPath><clipPath id="09d084fd84"><path d="M 0 106 L 1 106 L 1 107.503906 L 0 107.503906 Z M 0 106 " clip-rule="nonzero"/></clipPath><clipPath id="db88951a48"><path d="M 38 57 L 60.144531 57 L 60.144531 80 L 38 80 Z M 38 57 " clip-rule="nonzero"/></clipPath><clipPath id="10e8fb160d"><path d="M 40 29.539062 L 47 29.539062 L 47 47 L 40 47 Z M 40 29.539062 " clip-rule="nonzero"/></clipPath></defs><g clip-path="url(#2e38c51d8d)"><path stroke-linecap="butt" transform="matrix(2.23462, 0, 0, 2.202282, 63.699331, 25.775539)" fill="none" stroke-linejoin="miter" d="M -0.0000500574 0.000819284 L 139.563294 0.000819284 L 139.563294 38.435744 L -0.0000500574 38.435744 L -0.0000500574 0.000819284 " stroke="#000000" stroke-width="2.020078" stroke-opacity="1" stroke-miterlimit="4"/></g><g clip-path="url(#a13b0df752)"><path fill="#000000" d="M 72.109375 33.820312 L 219.113281 33.820312 L 219.113281 102.878906 L 72.109375 102.878906 L 72.109375 33.820312 " fill-opacity="1" fill-rule="nonzero"/></g><path fill="#004aad" d="M 36.363281 65.625 C 36.648438 65.351562 36.933594 65.082031 37.21875 64.820312 C 37.191406 64.785156 37.167969 64.75 37.140625 64.714844 C 36.882812 64.933594 36.589844 65.191406 36.269531 65.484375 C 36.269531 65.492188 36.273438 65.496094 36.277344 65.5 L 36.363281 65.625 " fill-opacity="1" fill-rule="nonzero"/><path fill="#004aad" d="M 37.003906 65.179688 C 36.96875 65.128906 36.929688 65.082031 36.894531 65.03125 C 36.625 65.21875 36.480469 65.304688 36.480469 65.304688 C 36.648438 65.269531 36.824219 65.230469 37.003906 65.179688 " fill-opacity="1" fill-rule="nonzero"/><g clip-path="url(#09d084fd84)"><path fill="#004aad" d="M 0.523438 106.261719 C 0.359375 106.660156 0.191406 107.0625 0.0234375 107.472656 C 0.160156 107.484375 0.292969 107.496094 0.425781 107.507812 C 0.589844 107.101562 0.75 106.695312 0.917969 106.285156 C 0.785156 106.277344 0.65625 106.269531 0.523438 106.261719 " fill-opacity="1" fill-rule="nonzero"/></g><g clip-path="url(#db88951a48)"><path fill="#004aad" d="M 60.054688 71.113281 L 60.0625 71.046875 L 60.078125 70.910156 C 60.085938 70.867188 60.089844 70.820312 60.09375 70.777344 L 60.105469 70.644531 L 60.113281 70.511719 C 60.113281 70.464844 60.117188 70.421875 60.117188 70.378906 L 60.121094 70.109375 C 60.121094 70.089844 60.121094 70.066406 60.121094 70.042969 L 60.121094 69.980469 L 60.113281 69.847656 C 60.109375 69.757812 60.109375 69.671875 60.101562 69.582031 L 60.078125 69.320312 C 60.074219 69.277344 60.066406 69.234375 60.0625 69.191406 L 60.042969 69.0625 C 60.023438 68.890625 59.988281 68.71875 59.957031 68.550781 L 59.945312 68.488281 L 59.929688 68.425781 L 59.902344 68.296875 C 59.882812 68.214844 59.863281 68.132812 59.84375 68.046875 L 59.773438 67.800781 L 59.738281 67.679688 C 59.726562 67.636719 59.714844 67.597656 59.703125 67.558594 C 59.648438 67.398438 59.601562 67.234375 59.542969 67.078125 L 59.457031 66.839844 C 59.425781 66.761719 59.394531 66.683594 59.363281 66.609375 C 59.113281 65.988281 58.820312 65.394531 58.503906 64.820312 L 58.382812 64.605469 L 58.355469 64.554688 L 58.324219 64.5 L 58.261719 64.394531 L 58.136719 64.1875 L 58.074219 64.082031 L 58.007812 63.980469 C 57.921875 63.839844 57.835938 63.703125 57.746094 63.566406 C 57.65625 63.433594 57.570312 63.296875 57.480469 63.164062 C 57.117188 62.632812 56.734375 62.113281 56.34375 61.613281 C 56.246094 61.484375 56.144531 61.363281 56.046875 61.238281 L 55.898438 61.050781 L 55.746094 60.867188 C 55.644531 60.746094 55.542969 60.625 55.441406 60.503906 C 55.339844 60.382812 55.234375 60.261719 55.132812 60.144531 L 54.820312 59.785156 C 54.714844 59.667969 54.613281 59.550781 54.507812 59.433594 C 54.402344 59.316406 54.292969 59.203125 54.1875 59.085938 L 54.027344 58.914062 L 53.949219 58.828125 L 53.867188 58.742188 C 53.378906 58.222656 52.882812 57.71875 52.378906 57.222656 C 52.175781 57.636719 51.96875 58.050781 51.757812 58.472656 C 51.894531 58.613281 52.03125 58.757812 52.167969 58.902344 L 52.347656 59.089844 L 52.433594 59.183594 L 52.523438 59.277344 C 52.640625 59.402344 52.753906 59.53125 52.871094 59.65625 L 52.960938 59.75 L 53.046875 59.847656 L 53.21875 60.039062 C 53.332031 60.167969 53.449219 60.296875 53.5625 60.429688 C 54.46875 61.46875 55.339844 62.546875 56.117188 63.6875 C 56.503906 64.257812 56.871094 64.839844 57.203125 65.441406 C 57.53125 66.039062 57.828125 66.65625 58.070312 67.289062 C 58.085938 67.328125 58.097656 67.367188 58.113281 67.40625 L 58.15625 67.523438 L 58.195312 67.644531 L 58.21875 67.703125 L 58.234375 67.761719 C 58.285156 67.921875 58.339844 68.082031 58.378906 68.242188 L 58.410156 68.363281 C 58.421875 68.402344 58.433594 68.441406 58.441406 68.484375 L 58.496094 68.726562 L 58.507812 68.785156 L 58.519531 68.847656 L 58.542969 68.96875 L 58.5625 69.089844 L 58.570312 69.121094 L 58.574219 69.148438 L 58.582031 69.210938 L 58.613281 69.453125 L 58.632812 69.695312 L 58.636719 69.757812 C 58.640625 69.777344 58.640625 69.796875 58.640625 69.816406 L 58.648438 70.058594 C 58.648438 70.097656 58.648438 70.136719 58.648438 70.175781 L 58.644531 70.296875 L 58.644531 70.355469 C 58.644531 70.378906 58.640625 70.398438 58.640625 70.417969 L 58.625 70.65625 L 58.59375 70.890625 C 58.589844 70.929688 58.582031 70.96875 58.574219 71.007812 L 58.554688 71.125 C 58.433594 71.742188 58.199219 72.332031 57.847656 72.863281 C 57.671875 73.128906 57.472656 73.382812 57.25 73.621094 C 57.195312 73.679688 57.140625 73.742188 57.082031 73.796875 L 56.992188 73.882812 C 56.964844 73.914062 56.933594 73.941406 56.902344 73.96875 L 56.71875 74.136719 L 56.527344 74.296875 C 56.269531 74.507812 55.992188 74.703125 55.707031 74.886719 L 55.488281 75.023438 C 55.414062 75.070312 55.339844 75.113281 55.265625 75.15625 C 55.191406 75.199219 55.117188 75.238281 55.039062 75.28125 C 54.964844 75.324219 54.890625 75.363281 54.8125 75.402344 C 54.503906 75.566406 54.1875 75.710938 53.863281 75.851562 C 53.542969 75.992188 53.210938 76.121094 52.878906 76.242188 C 52.296875 76.453125 51.707031 76.636719 51.109375 76.800781 C 50.507812 76.964844 49.90625 77.109375 49.296875 77.234375 C 48.078125 77.492188 46.847656 77.683594 45.613281 77.832031 C 43.699219 78.066406 41.777344 78.199219 39.867188 78.265625 C 39.507812 78.738281 39.144531 79.199219 38.78125 79.65625 C 38.949219 79.652344 39.113281 79.652344 39.28125 79.648438 C 39.988281 79.640625 40.695312 79.621094 41.40625 79.589844 C 42.117188 79.5625 42.828125 79.519531 43.542969 79.46875 C 44.261719 79.414062 44.976562 79.351562 45.695312 79.269531 C 46.414062 79.191406 47.132812 79.097656 47.851562 78.984375 C 48.574219 78.867188 49.292969 78.738281 50.011719 78.582031 L 50.28125 78.523438 L 50.550781 78.460938 L 50.6875 78.429688 L 50.820312 78.394531 L 51.089844 78.328125 L 51.359375 78.257812 L 51.496094 78.222656 L 51.628906 78.1875 L 51.898438 78.109375 L 52.164062 78.03125 L 52.300781 77.992188 L 52.433594 77.949219 L 52.699219 77.867188 L 52.96875 77.777344 C 53.011719 77.761719 53.054688 77.75 53.101562 77.734375 L 53.234375 77.6875 C 53.589844 77.5625 53.941406 77.425781 54.292969 77.28125 C 54.992188 76.988281 55.683594 76.652344 56.34375 76.242188 C 56.425781 76.1875 56.511719 76.140625 56.59375 76.085938 L 56.835938 75.921875 C 56.996094 75.808594 57.15625 75.695312 57.3125 75.570312 C 57.625 75.328125 57.925781 75.0625 58.210938 74.773438 C 58.492188 74.480469 58.753906 74.167969 58.988281 73.828125 C 59.222656 73.484375 59.429688 73.121094 59.59375 72.738281 C 59.628906 72.65625 59.664062 72.570312 59.699219 72.488281 L 59.792969 72.230469 C 59.796875 72.210938 59.804688 72.1875 59.8125 72.167969 L 59.832031 72.101562 L 59.871094 71.972656 L 59.910156 71.839844 L 59.941406 71.710938 L 59.972656 71.578125 C 59.980469 71.53125 59.992188 71.488281 60 71.445312 L 60.046875 71.179688 C 60.050781 71.15625 60.054688 71.132812 60.054688 71.113281 " fill-opacity="1" fill-rule="nonzero"/></g><g clip-path="url(#10e8fb160d)"><path fill="#004aad" d="M 43.863281 46.058594 C 43.273438 45.085938 42.738281 44.089844 42.285156 43.066406 C 42.058594 42.558594 41.855469 42.039062 41.675781 41.519531 C 41.496094 40.996094 41.34375 40.46875 41.222656 39.933594 C 40.984375 38.871094 40.878906 37.785156 40.96875 36.71875 C 41.015625 36.1875 41.117188 35.664062 41.265625 35.15625 C 41.417969 34.652344 41.621094 34.160156 41.871094 33.699219 C 42.125 33.234375 42.425781 32.796875 42.761719 32.394531 C 43.101562 31.988281 43.476562 31.617188 43.878906 31.273438 C 44.277344 30.929688 44.703125 30.617188 45.140625 30.328125 C 45.253906 30.257812 45.363281 30.1875 45.472656 30.117188 C 45.585938 30.046875 45.699219 29.980469 45.8125 29.914062 C 45.925781 29.847656 46.042969 29.785156 46.15625 29.722656 C 46.273438 29.660156 46.386719 29.59375 46.503906 29.539062 C 45.976562 29.777344 45.460938 30.039062 44.960938 30.339844 C 44.457031 30.636719 43.972656 30.972656 43.515625 31.351562 C 43.402344 31.445312 43.292969 31.542969 43.179688 31.640625 C 43.070312 31.742188 42.964844 31.847656 42.855469 31.949219 C 42.804688 32.003906 42.753906 32.054688 42.699219 32.109375 L 42.621094 32.191406 C 42.597656 32.21875 42.570312 32.246094 42.546875 32.273438 C 42.496094 32.328125 42.445312 32.386719 42.398438 32.441406 L 42.324219 32.527344 C 42.296875 32.554688 42.277344 32.585938 42.253906 32.613281 C 41.871094 33.082031 41.539062 33.589844 41.265625 34.140625 C 40.992188 34.6875 40.789062 35.273438 40.648438 35.878906 C 40.636719 35.917969 40.632812 35.953125 40.625 35.992188 L 40.601562 36.105469 L 40.578125 36.222656 L 40.566406 36.277344 L 40.558594 36.335938 C 40.535156 36.488281 40.507812 36.644531 40.492188 36.800781 C 40.484375 36.875 40.472656 36.953125 40.464844 37.03125 C 40.460938 37.109375 40.457031 37.1875 40.449219 37.265625 L 40.441406 37.382812 C 40.4375 37.421875 40.4375 37.460938 40.4375 37.5 C 40.433594 37.578125 40.429688 37.65625 40.429688 37.738281 C 40.417969 38.363281 40.46875 38.996094 40.558594 39.621094 C 40.570312 39.699219 40.585938 39.777344 40.597656 39.855469 C 40.613281 39.933594 40.625 40.011719 40.636719 40.089844 C 40.652344 40.167969 40.667969 40.246094 40.6875 40.324219 C 40.699219 40.402344 40.714844 40.480469 40.734375 40.558594 C 40.769531 40.710938 40.804688 40.867188 40.84375 41.023438 C 40.867188 41.101562 40.886719 41.175781 40.90625 41.253906 C 40.925781 41.332031 40.949219 41.40625 40.96875 41.484375 C 41.320312 42.714844 41.8125 43.910156 42.382812 45.070312 C 42.679688 45.671875 43 46.265625 43.335938 46.851562 C 43.53125 46.613281 43.722656 46.378906 43.917969 46.144531 C 43.898438 46.117188 43.878906 46.085938 43.863281 46.058594 " fill-opacity="1" fill-rule="nonzero"/></g><path fill="#004aad" d="M 24.300781 78.671875 C 24.148438 78.679688 23.996094 78.695312 23.84375 78.707031 C 23.238281 78.761719 22.632812 78.835938 22.035156 78.929688 C 21.433594 79.027344 20.835938 79.144531 20.246094 79.292969 C 20.097656 79.328125 19.953125 79.371094 19.804688 79.414062 L 19.695312 79.441406 L 19.585938 79.476562 L 19.367188 79.542969 C 19.292969 79.5625 19.222656 79.589844 19.148438 79.613281 L 18.933594 79.6875 L 18.71875 79.765625 C 18.644531 79.789062 18.574219 79.816406 18.503906 79.84375 L 18.289062 79.929688 C 18.21875 79.957031 18.148438 79.988281 18.078125 80.019531 L 17.972656 80.0625 L 17.921875 80.085938 L 17.867188 80.113281 L 17.660156 80.207031 C 17.386719 80.34375 17.113281 80.484375 16.847656 80.644531 L 16.75 80.703125 C 16.71875 80.722656 16.683594 80.746094 16.652344 80.765625 C 16.589844 80.808594 16.523438 80.847656 16.457031 80.890625 L 16.269531 81.023438 L 16.222656 81.054688 L 16.082031 81.160156 C 15.835938 81.347656 15.597656 81.546875 15.375 81.761719 C 15.15625 81.980469 14.945312 82.210938 14.753906 82.453125 C 14.5625 82.699219 14.390625 82.957031 14.238281 83.226562 C 13.933594 83.765625 13.707031 84.34375 13.566406 84.933594 C 13.429688 85.523438 13.363281 86.125 13.363281 86.714844 C 13.363281 87.308594 13.414062 87.894531 13.511719 88.464844 C 13.703125 89.605469 14.046875 90.699219 14.464844 91.738281 C 14.886719 92.78125 15.378906 93.777344 15.917969 94.730469 C 16.453125 95.6875 17.035156 96.609375 17.648438 97.492188 C 18.257812 98.378906 18.898438 99.230469 19.570312 100.046875 C 18.878906 99.113281 18.230469 98.136719 17.613281 97.125 C 16.996094 96.113281 16.417969 95.0625 15.902344 93.976562 C 15.382812 92.886719 14.925781 91.753906 14.582031 90.582031 C 14.410156 89.996094 14.265625 89.398438 14.167969 88.796875 C 14.070312 88.191406 14.015625 87.578125 14.023438 86.96875 C 14.03125 86.355469 14.105469 85.746094 14.261719 85.160156 C 14.417969 84.574219 14.664062 84.015625 14.992188 83.507812 C 15.320312 83 15.738281 82.550781 16.210938 82.164062 C 16.449219 81.96875 16.699219 81.789062 16.960938 81.625 C 17.222656 81.464844 17.5 81.316406 17.78125 81.179688 L 17.992188 81.078125 C 18.0625 81.046875 18.136719 81.015625 18.207031 80.984375 C 18.246094 80.96875 18.28125 80.953125 18.316406 80.9375 L 18.535156 80.851562 C 18.574219 80.835938 18.609375 80.824219 18.648438 80.808594 L 18.871094 80.726562 C 18.90625 80.714844 18.945312 80.703125 18.984375 80.691406 L 19.097656 80.652344 C 19.246094 80.601562 19.398438 80.558594 19.550781 80.511719 C 20.164062 80.332031 20.792969 80.195312 21.433594 80.085938 C 22.070312 79.976562 22.71875 79.898438 23.371094 79.847656 C 23.660156 79.820312 23.953125 79.804688 24.242188 79.789062 C 24.269531 79.417969 24.300781 79.046875 24.335938 78.667969 C 24.324219 78.667969 24.3125 78.667969 24.300781 78.671875 " fill-opacity="1" fill-rule="nonzero"/><path fill="#004aad" d="M 47.941406 63.804688 C 47.941406 63.804688 43.566406 67.082031 39.105469 64.296875 C 39.105469 64.296875 44.425781 64.34375 47.941406 63.804688 Z M 43.808594 70.738281 C 43.707031 70.796875 43.554688 70.875 43.367188 70.96875 C 43.175781 71.066406 42.949219 71.175781 42.6875 71.289062 C 42.621094 71.316406 42.550781 71.34375 42.484375 71.375 C 42.414062 71.402344 42.34375 71.433594 42.273438 71.464844 C 42.128906 71.523438 41.976562 71.582031 41.816406 71.640625 C 41.5 71.761719 41.160156 71.875 40.796875 71.972656 C 40.753906 71.984375 40.707031 71.996094 40.664062 72.007812 C 40.617188 72.023438 40.570312 72.035156 40.527344 72.046875 C 40.433594 72.070312 40.34375 72.089844 40.25 72.113281 C 40.066406 72.15625 39.875 72.191406 39.683594 72.222656 C 39.296875 72.285156 38.90625 72.324219 38.507812 72.324219 C 38.109375 72.324219 37.710938 72.289062 37.320312 72.203125 C 37.390625 72.183594 37.457031 72.164062 37.527344 72.144531 L 37.738281 72.089844 L 38.15625 71.976562 C 38.433594 71.902344 38.710938 71.828125 38.988281 71.753906 C 39.265625 71.683594 39.542969 71.613281 39.820312 71.542969 C 40.097656 71.476562 40.375 71.410156 40.652344 71.34375 C 40.929688 71.28125 41.207031 71.214844 41.484375 71.152344 L 41.898438 71.0625 C 41.964844 71.046875 42.035156 71.03125 42.105469 71.019531 L 42.3125 70.976562 C 42.867188 70.859375 43.417969 70.753906 43.964844 70.648438 C 43.964844 70.648438 43.910156 70.683594 43.808594 70.738281 Z M 22.179688 98.1875 C 22.09375 98.335938 21.902344 98.425781 21.714844 98.402344 C 21.402344 98.363281 21.234375 98.074219 21.375 97.828125 C 21.460938 97.679688 21.652344 97.589844 21.839844 97.613281 C 22.148438 97.652344 22.320312 97.941406 22.179688 98.1875 Z M 59.347656 45.632812 C 59.335938 45.589844 59.316406 45.550781 59.28125 45.511719 C 59.25 45.476562 59.203125 45.445312 59.148438 45.417969 C 58.816406 45.269531 58.46875 45.140625 58.113281 45.027344 L 58.046875 45.007812 C 58.023438 45 58 44.992188 57.976562 44.988281 L 57.695312 44.910156 C 57.671875 44.902344 57.648438 44.898438 57.625 44.890625 L 57.558594 44.875 C 57.464844 44.851562 57.371094 44.828125 57.277344 44.808594 C 57.1875 44.785156 57.09375 44.765625 57 44.746094 C 56.265625 44.59375 55.535156 44.5 54.8125 44.460938 C 54.089844 44.417969 53.371094 44.425781 52.660156 44.480469 C 52.484375 44.492188 52.304688 44.507812 52.128906 44.523438 C 51.953125 44.542969 51.777344 44.566406 51.601562 44.589844 C 51.425781 44.609375 51.253906 44.636719 51.078125 44.667969 L 50.816406 44.710938 L 50.6875 44.730469 L 50.558594 44.757812 C 50.558594 44.757812 50.484375 44.769531 50.347656 44.800781 C 50.277344 44.816406 50.191406 44.835938 50.089844 44.863281 C 50.039062 44.875 49.984375 44.890625 49.925781 44.90625 C 49.867188 44.925781 49.808594 44.945312 49.742188 44.964844 C 49.488281 45.050781 49.167969 45.160156 48.824219 45.320312 C 48.738281 45.359375 48.644531 45.402344 48.554688 45.445312 C 48.507812 45.46875 48.460938 45.492188 48.414062 45.515625 C 48.367188 45.539062 48.320312 45.5625 48.273438 45.589844 C 48.082031 45.691406 47.882812 45.804688 47.675781 45.929688 C 47.472656 46.058594 47.265625 46.199219 47.050781 46.351562 C 46.941406 46.425781 46.839844 46.507812 46.730469 46.59375 C 46.625 46.675781 46.515625 46.765625 46.410156 46.855469 C 46.355469 46.902344 46.300781 46.945312 46.246094 46.992188 C 46.191406 47.042969 46.140625 47.089844 46.085938 47.140625 C 45.980469 47.238281 45.871094 47.339844 45.765625 47.449219 C 45.710938 47.5 45.65625 47.554688 45.605469 47.609375 C 45.589844 47.621094 45.578125 47.636719 45.5625 47.648438 C 45.550781 47.664062 45.539062 47.679688 45.523438 47.691406 C 45.5 47.71875 45.472656 47.75 45.445312 47.777344 C 45.34375 47.890625 45.238281 48.011719 45.132812 48.132812 C 44.921875 48.371094 44.730469 48.632812 44.53125 48.910156 C 44.484375 48.976562 44.433594 49.046875 44.386719 49.117188 C 44.363281 49.152344 44.335938 49.1875 44.3125 49.222656 C 44.292969 49.257812 44.269531 49.292969 44.246094 49.332031 C 44.152344 49.476562 44.0625 49.625 43.972656 49.777344 C 43.929688 49.855469 43.882812 49.933594 43.839844 50.011719 C 43.816406 50.050781 43.792969 50.089844 43.773438 50.128906 C 43.753906 50.167969 43.734375 50.207031 43.710938 50.25 C 43.628906 50.410156 43.546875 50.574219 43.46875 50.742188 C 43.429688 50.828125 43.390625 50.914062 43.351562 51 C 43.332031 51.042969 43.3125 51.085938 43.296875 51.128906 C 43.277344 51.171875 43.261719 51.214844 43.242188 51.261719 C 43.171875 51.4375 43.105469 51.617188 43.039062 51.800781 C 43.039062 51.800781 43.011719 51.738281 43 51.578125 C 42.996094 51.496094 42.996094 51.394531 43.003906 51.261719 C 43.011719 51.195312 43.019531 51.121094 43.03125 51.039062 C 43.035156 51 43.042969 50.957031 43.046875 50.910156 C 43.050781 50.890625 43.054688 50.867188 43.058594 50.84375 C 43.066406 50.820312 43.070312 50.796875 43.074219 50.773438 C 43.117188 50.578125 43.175781 50.351562 43.257812 50.089844 C 43.300781 49.957031 43.351562 49.816406 43.40625 49.664062 C 43.464844 49.515625 43.53125 49.355469 43.605469 49.183594 C 43.683594 49.011719 43.765625 48.828125 43.859375 48.636719 C 43.960938 48.445312 44.070312 48.246094 44.191406 48.03125 C 44.25 47.921875 44.3125 47.8125 44.378906 47.699219 C 44.449219 47.589844 44.523438 47.472656 44.597656 47.355469 C 44.675781 47.238281 44.753906 47.117188 44.835938 46.992188 C 44.878906 46.929688 44.921875 46.867188 44.964844 46.804688 C 45.007812 46.742188 45.054688 46.679688 45.101562 46.613281 L 44.925781 46.699219 C 44.898438 46.714844 44.871094 46.730469 44.839844 46.742188 L 44.757812 46.789062 L 44.414062 46.964844 L 44.074219 47.148438 C 44.015625 47.179688 43.960938 47.210938 43.90625 47.242188 L 43.742188 47.335938 L 43.410156 47.527344 L 43.246094 47.625 L 43.164062 47.675781 C 43.132812 47.691406 43.105469 47.707031 43.082031 47.722656 C 42.867188 47.855469 42.652344 47.992188 42.441406 48.128906 L 42.28125 48.230469 L 42.203125 48.28125 L 42.125 48.335938 L 41.507812 48.757812 C 41.40625 48.832031 41.300781 48.902344 41.203125 48.976562 C 41.003906 49.125 40.804688 49.273438 40.609375 49.421875 L 40.460938 49.535156 L 40.386719 49.589844 L 40.316406 49.648438 L 40.03125 49.878906 C 38.503906 51.109375 37.140625 52.453125 35.917969 53.855469 C 35.890625 53.882812 35.867188 53.910156 35.84375 53.941406 L 35.769531 54.027344 C 35.722656 54.085938 35.675781 54.144531 35.628906 54.207031 C 35.535156 54.324219 35.441406 54.445312 35.355469 54.566406 C 35.265625 54.6875 35.179688 54.8125 35.097656 54.9375 C 35.074219 54.96875 35.054688 55 35.035156 55.03125 L 34.976562 55.128906 C 34.9375 55.191406 34.902344 55.253906 34.863281 55.320312 C 34.714844 55.574219 34.578125 55.835938 34.449219 56.101562 L 34.402344 56.203125 C 34.386719 56.234375 34.375 56.269531 34.359375 56.300781 C 34.332031 56.367188 34.304688 56.4375 34.277344 56.503906 C 34.222656 56.636719 34.171875 56.773438 34.121094 56.910156 C 34.074219 57.046875 34.027344 57.183594 33.984375 57.320312 C 33.964844 57.386719 33.945312 57.457031 33.925781 57.527344 C 33.914062 57.558594 33.90625 57.59375 33.894531 57.628906 L 33.871094 57.734375 C 33.804688 58.011719 33.75 58.289062 33.707031 58.570312 C 33.6875 58.710938 33.667969 58.847656 33.652344 58.988281 C 33.644531 59.058594 33.640625 59.128906 33.632812 59.199219 C 33.628906 59.269531 33.625 59.339844 33.621094 59.410156 C 33.609375 59.6875 33.613281 59.96875 33.625 60.246094 C 33.636719 60.417969 33.644531 60.582031 33.660156 60.746094 C 33.667969 60.824219 33.671875 60.90625 33.679688 60.984375 C 33.683594 61.003906 33.683594 61.023438 33.6875 61.042969 C 33.691406 61.0625 33.691406 61.082031 33.695312 61.101562 C 33.699219 61.140625 33.703125 61.179688 33.710938 61.21875 C 33.75 61.523438 33.800781 61.808594 33.863281 62.066406 C 33.984375 62.582031 34.148438 62.988281 34.363281 63.222656 C 34.363281 63.222656 34.300781 63.195312 34.1875 63.097656 C 34.078125 63 33.914062 62.828125 33.714844 62.535156 C 33.515625 62.242188 33.273438 61.832031 33.011719 61.246094 C 32.945312 61.097656 32.878906 60.941406 32.8125 60.769531 C 32.742188 60.601562 32.671875 60.417969 32.605469 60.226562 C 32.472656 59.835938 32.335938 59.398438 32.199219 58.898438 C 30.816406 61.117188 29.6875 63.371094 28.761719 65.574219 C 27.835938 67.777344 27.109375 69.9375 26.527344 71.992188 C 26.480469 72.164062 26.4375 72.339844 26.394531 72.511719 C 26.355469 72.6875 26.320312 72.863281 26.292969 73.039062 C 26.234375 73.390625 26.195312 73.742188 26.175781 74.097656 C 26.167969 74.273438 26.160156 74.449219 26.160156 74.625 C 26.160156 74.714844 26.160156 74.800781 26.164062 74.890625 C 26.164062 74.933594 26.164062 74.980469 26.167969 75.023438 L 26.175781 75.15625 C 26.195312 75.507812 26.234375 75.859375 26.292969 76.207031 C 26.339844 76.480469 26.390625 76.746094 26.445312 76.996094 C 26.472656 77.125 26.5 77.246094 26.53125 77.363281 C 26.5625 77.480469 26.59375 77.597656 26.625 77.707031 C 26.757812 78.144531 26.90625 78.5 27.074219 78.722656 C 27.074219 78.722656 26.890625 78.511719 26.597656 78.109375 C 26.453125 77.910156 26.277344 77.660156 26.085938 77.367188 C 26.039062 77.292969 25.988281 77.214844 25.9375 77.136719 C 25.886719 77.058594 25.835938 76.976562 25.785156 76.890625 C 25.683594 76.722656 25.578125 76.542969 25.46875 76.351562 C 25.351562 76.890625 25.257812 77.417969 25.167969 77.929688 C 25.121094 78.1875 25.074219 78.441406 25.03125 78.691406 C 25.011719 78.816406 24.992188 78.941406 24.96875 79.0625 C 24.949219 79.1875 24.933594 79.308594 24.914062 79.433594 C 24.839844 79.921875 24.769531 80.394531 24.707031 80.855469 C 24.691406 80.96875 24.675781 81.082031 24.660156 81.195312 C 24.65625 81.222656 24.652344 81.25 24.648438 81.28125 C 24.648438 81.308594 24.644531 81.335938 24.640625 81.363281 C 24.632812 81.421875 24.625 81.476562 24.621094 81.53125 C 24.59375 81.753906 24.570312 81.972656 24.542969 82.1875 C 24.496094 82.617188 24.453125 83.03125 24.414062 83.429688 C 24.410156 83.480469 24.402344 83.527344 24.398438 83.578125 C 24.394531 83.625 24.390625 83.675781 24.386719 83.722656 C 24.378906 83.820312 24.371094 83.917969 24.363281 84.011719 C 24.347656 84.203125 24.332031 84.390625 24.320312 84.570312 C 24.289062 84.933594 24.265625 85.28125 24.246094 85.609375 C 24.238281 85.691406 24.234375 85.769531 24.230469 85.851562 C 24.226562 85.929688 24.21875 86.007812 24.214844 86.085938 C 24.210938 86.238281 24.203125 86.390625 24.195312 86.535156 C 24.195312 86.558594 24.191406 86.582031 24.183594 86.609375 L 23.832031 87.660156 L 23.660156 88.1875 L 23.613281 88.316406 L 23.574219 88.449219 L 23.488281 88.710938 L 23.152344 89.769531 L 22.984375 90.292969 L 22.902344 90.558594 L 22.859375 90.691406 L 22.820312 90.824219 L 22.460938 92.003906 L 22.480469 92.011719 C 22.433594 92.160156 22.386719 92.3125 22.339844 92.464844 C 22.1875 92.96875 22.039062 93.464844 21.898438 93.957031 C 21.863281 94.078125 21.828125 94.199219 21.796875 94.320312 C 21.761719 94.445312 21.730469 94.566406 21.695312 94.6875 C 21.632812 94.929688 21.570312 95.171875 21.507812 95.410156 C 21.460938 95.601562 21.410156 95.792969 21.363281 95.984375 L 20.011719 100.675781 C 19.980469 100.78125 20.136719 100.84375 20.210938 100.757812 C 21.035156 99.765625 22.757812 98.519531 23.242188 98.175781 C 23.300781 98.136719 23.285156 98.058594 23.21875 98.03125 C 22.765625 97.855469 22.410156 97.558594 22.136719 97.246094 C 22.632812 95.574219 23.128906 93.964844 23.621094 92.414062 L 23.632812 92.417969 L 23.972656 91.320312 C 24.058594 91.042969 24.152344 90.769531 24.242188 90.496094 L 24.78125 88.839844 C 24.824219 88.703125 24.871094 88.566406 24.917969 88.429688 L 25.058594 88.015625 L 25.339844 87.191406 L 25.480469 86.78125 L 25.550781 86.574219 L 25.621094 86.371094 L 26.207031 84.726562 L 26.351562 84.316406 L 26.503906 83.90625 L 26.804688 83.089844 L 27.109375 82.273438 C 27.132812 82.203125 27.160156 82.136719 27.1875 82.066406 L 27.421875 81.457031 L 27.738281 80.640625 L 27.894531 80.234375 C 27.949219 80.097656 28.003906 79.964844 28.058594 79.828125 L 28.714844 78.207031 L 29.394531 76.589844 C 30.316406 74.441406 31.296875 72.3125 32.355469 70.207031 C 32.613281 69.679688 32.890625 69.160156 33.164062 68.636719 L 33.367188 68.242188 L 33.394531 68.195312 L 33.417969 68.144531 L 33.472656 68.050781 L 33.578125 67.855469 L 34.003906 67.074219 L 34.109375 66.882812 C 34.144531 66.816406 34.179688 66.75 34.21875 66.6875 L 34.4375 66.300781 L 34.878906 65.527344 L 34.933594 65.433594 L 34.960938 65.382812 L 34.988281 65.335938 L 35.101562 65.144531 L 35.332031 64.761719 L 35.671875 64.1875 L 35.730469 64.089844 C 35.75 64.058594 35.769531 64.027344 35.789062 63.996094 L 36.261719 63.238281 L 36.5 62.859375 C 36.578125 62.730469 36.660156 62.609375 36.742188 62.480469 L 37.234375 61.730469 L 37.292969 61.636719 L 37.359375 61.542969 L 37.484375 61.359375 L 37.992188 60.617188 L 38.058594 60.523438 C 38.078125 60.492188 38.101562 60.460938 38.121094 60.429688 L 38.253906 60.246094 L 38.78125 59.511719 C 38.800781 59.484375 38.824219 59.453125 38.847656 59.421875 L 38.914062 59.332031 L 39.050781 59.148438 L 39.324219 58.785156 L 39.59375 58.425781 L 39.875 58.066406 L 40.160156 57.710938 L 40.300781 57.53125 C 40.324219 57.5 40.347656 57.472656 40.371094 57.441406 L 40.445312 57.355469 L 41.027344 56.648438 L 41.101562 56.5625 C 41.125 56.53125 41.148438 56.503906 41.175781 56.476562 L 41.324219 56.300781 L 41.628906 55.957031 L 41.777344 55.785156 L 41.855469 55.695312 C 41.878906 55.667969 41.90625 55.640625 41.933594 55.613281 L 42.246094 55.273438 C 43.078125 54.363281 43.953125 53.484375 44.890625 52.648438 L 44.828125 52.707031 C 44.808594 52.722656 44.789062 52.742188 44.769531 52.761719 L 44.648438 52.875 L 44.171875 53.335938 L 44.113281 53.390625 L 43.9375 53.566406 L 43.476562 54.035156 L 43.363281 54.152344 L 43.25 54.273438 L 42.804688 54.75 L 42.691406 54.871094 C 42.671875 54.890625 42.65625 54.910156 42.636719 54.929688 L 42.582031 54.992188 L 42.152344 55.476562 L 41.9375 55.722656 C 41.867188 55.804688 41.796875 55.886719 41.726562 55.96875 L 41.3125 56.464844 C 40.214844 57.792969 39.203125 59.164062 38.257812 60.570312 C 37.316406 61.972656 36.4375 63.40625 35.609375 64.855469 L 35.300781 65.402344 L 35.222656 65.535156 L 35.148438 65.675781 L 34.996094 65.949219 L 34.699219 66.496094 L 34.546875 66.773438 L 34.472656 66.910156 L 34.402344 67.046875 L 33.828125 68.152344 L 33.753906 68.292969 L 33.71875 68.359375 L 33.683594 68.429688 L 33.546875 68.707031 L 33.269531 69.265625 L 32.992188 69.820312 C 32.96875 69.867188 32.945312 69.914062 32.921875 69.960938 L 32.722656 70.382812 C 32.546875 70.753906 32.367188 71.128906 32.191406 71.5 L 31.679688 72.628906 L 31.550781 72.910156 C 31.507812 73.003906 31.464844 73.097656 31.425781 73.191406 L 31.179688 73.757812 L 30.929688 74.324219 L 30.746094 74.75 L 30.714844 74.820312 L 30.6875 74.890625 L 30.210938 76.03125 L 29.976562 76.601562 L 29.746094 77.171875 L 29.292969 78.316406 L 29.234375 78.460938 C 29.214844 78.507812 29.199219 78.554688 29.179688 78.601562 L 29.070312 78.890625 L 28.632812 80.039062 C 28.558594 80.230469 28.484375 80.421875 28.417969 80.613281 L 27.996094 81.769531 L 27.785156 82.34375 C 27.75 82.441406 27.71875 82.539062 27.683594 82.632812 L 27.585938 82.921875 L 27.179688 84.082031 L 27.027344 84.515625 L 26.980469 84.660156 L 26.785156 85.242188 L 26.398438 86.402344 L 26.304688 86.691406 L 26.210938 86.984375 L 26.023438 87.566406 C 25.945312 87.816406 26.242188 88.023438 26.457031 87.871094 C 26.789062 87.640625 27.113281 87.410156 27.433594 87.183594 C 27.597656 87.070312 27.757812 86.957031 27.917969 86.84375 C 28.074219 86.730469 28.234375 86.617188 28.390625 86.503906 C 28.707031 86.277344 29.015625 86.054688 29.316406 85.828125 C 29.46875 85.71875 29.621094 85.605469 29.769531 85.496094 C 29.921875 85.386719 30.070312 85.273438 30.21875 85.164062 C 30.519531 84.945312 30.808594 84.726562 31.097656 84.507812 C 31.242188 84.398438 31.382812 84.289062 31.527344 84.179688 C 31.667969 84.074219 31.804688 83.964844 31.949219 83.855469 C 32.511719 83.425781 33.054688 83 33.578125 82.578125 C 35.691406 80.894531 37.546875 79.285156 39.179688 77.746094 C 38.667969 77.820312 38.203125 77.878906 37.777344 77.925781 C 37.355469 77.972656 36.972656 78.007812 36.632812 78.035156 C 35.949219 78.082031 35.417969 78.085938 35.015625 78.066406 C 34.613281 78.046875 34.339844 78.007812 34.167969 77.972656 C 33.992188 77.933594 33.921875 77.902344 33.921875 77.902344 C 34.710938 78.113281 35.589844 78.015625 36.46875 77.761719 C 36.578125 77.730469 36.691406 77.695312 36.800781 77.660156 C 36.855469 77.640625 36.910156 77.621094 36.964844 77.601562 C 37.019531 77.585938 37.074219 77.566406 37.128906 77.542969 C 37.347656 77.464844 37.566406 77.375 37.785156 77.285156 C 38.214844 77.097656 38.636719 76.886719 39.03125 76.671875 C 39.132812 76.617188 39.230469 76.566406 39.328125 76.511719 C 39.425781 76.457031 39.523438 76.40625 39.617188 76.351562 C 39.804688 76.246094 39.984375 76.136719 40.15625 76.03125 C 40.332031 75.929688 40.492188 75.828125 40.648438 75.730469 C 40.800781 75.628906 40.945312 75.539062 41.082031 75.453125 C 41.617188 75.105469 41.96875 74.855469 42.050781 74.8125 C 42.058594 74.808594 42.070312 74.8125 42.074219 74.816406 C 42.085938 74.828125 42.101562 74.828125 42.109375 74.816406 C 43.5 73.335938 44.683594 71.921875 45.703125 70.558594 C 46.71875 69.199219 47.570312 67.890625 48.292969 66.628906 C 48.339844 66.550781 48.382812 66.46875 48.425781 66.390625 C 48.472656 66.3125 48.515625 66.234375 48.558594 66.160156 C 48.648438 66.003906 48.734375 65.847656 48.816406 65.691406 C 48.835938 65.652344 48.855469 65.613281 48.875 65.574219 L 48.9375 65.457031 C 48.976562 65.382812 49.019531 65.304688 49.058594 65.226562 C 49.136719 65.074219 49.214844 64.921875 49.292969 64.765625 C 49.308594 64.726562 49.328125 64.691406 49.347656 64.652344 C 49.367188 64.613281 49.386719 64.574219 49.40625 64.539062 C 49.441406 64.464844 49.480469 64.386719 49.515625 64.3125 C 49.589844 64.160156 49.660156 64.011719 49.726562 63.855469 C 49.746094 63.820312 49.761719 63.78125 49.78125 63.746094 C 49.796875 63.707031 49.816406 63.671875 49.832031 63.632812 C 49.867188 63.558594 49.902344 63.484375 49.933594 63.410156 C 49.96875 63.335938 50 63.261719 50.035156 63.1875 C 50.050781 63.148438 50.066406 63.113281 50.082031 63.074219 C 50.097656 63.035156 50.113281 62.996094 50.128906 62.960938 C 50.644531 61.777344 51.078125 60.628906 51.476562 59.5 C 51.304688 59.515625 51.140625 59.53125 50.980469 59.546875 C 50.816406 59.570312 50.660156 59.589844 50.503906 59.609375 C 50.425781 59.617188 50.347656 59.628906 50.269531 59.636719 C 50.230469 59.644531 50.191406 59.648438 50.15625 59.652344 C 50.136719 59.65625 50.117188 59.65625 50.097656 59.660156 C 50.078125 59.664062 50.058594 59.664062 50.039062 59.667969 C 49.890625 59.691406 49.742188 59.714844 49.597656 59.734375 C 49.449219 59.757812 49.308594 59.777344 49.167969 59.800781 C 49.152344 59.800781 49.132812 59.804688 49.117188 59.808594 C 49.097656 59.808594 49.082031 59.8125 49.0625 59.816406 C 49.03125 59.820312 48.996094 59.828125 48.960938 59.832031 C 48.894531 59.84375 48.824219 59.855469 48.757812 59.867188 C 48.625 59.890625 48.492188 59.910156 48.367188 59.933594 C 48.300781 59.945312 48.238281 59.953125 48.175781 59.964844 C 48.144531 59.96875 48.113281 59.972656 48.082031 59.980469 C 48.050781 59.984375 48.019531 59.988281 47.992188 59.996094 C 47.75 60.039062 47.515625 60.082031 47.296875 60.117188 C 47.1875 60.136719 47.078125 60.152344 46.972656 60.171875 C 46.921875 60.179688 46.871094 60.191406 46.820312 60.199219 C 46.769531 60.207031 46.71875 60.214844 46.671875 60.226562 C 46.476562 60.257812 46.289062 60.289062 46.113281 60.316406 C 46.027344 60.332031 45.941406 60.34375 45.859375 60.355469 C 45.820312 60.363281 45.78125 60.367188 45.742188 60.375 C 45.703125 60.378906 45.664062 60.386719 45.625 60.390625 C 45.019531 60.484375 44.585938 60.527344 44.308594 60.542969 C 44.273438 60.542969 44.242188 60.542969 44.210938 60.546875 C 44.179688 60.546875 44.152344 60.546875 44.128906 60.550781 C 44.078125 60.550781 44.035156 60.550781 44 60.550781 C 43.9375 60.550781 43.90625 60.550781 43.90625 60.550781 C 43.960938 60.542969 44.015625 60.535156 44.070312 60.523438 C 44.101562 60.519531 44.128906 60.515625 44.15625 60.507812 C 44.1875 60.503906 44.214844 60.5 44.246094 60.492188 C 44.363281 60.46875 44.484375 60.441406 44.605469 60.410156 C 44.851562 60.347656 45.101562 60.265625 45.363281 60.171875 C 45.394531 60.15625 45.429688 60.144531 45.460938 60.132812 C 45.496094 60.121094 45.527344 60.109375 45.5625 60.097656 C 45.628906 60.074219 45.695312 60.050781 45.761719 60.023438 C 45.894531 59.972656 46.03125 59.914062 46.167969 59.859375 C 46.4375 59.738281 46.722656 59.621094 47 59.492188 C 47.070312 59.460938 47.140625 59.429688 47.210938 59.394531 C 47.246094 59.378906 47.28125 59.363281 47.316406 59.347656 L 47.367188 59.320312 L 47.421875 59.296875 C 47.5625 59.234375 47.703125 59.167969 47.847656 59.101562 C 47.917969 59.070312 47.988281 59.035156 48.058594 59 L 48.160156 58.949219 L 48.214844 58.925781 C 48.230469 58.914062 48.25 58.90625 48.269531 58.898438 C 48.410156 58.835938 48.550781 58.769531 48.6875 58.703125 C 48.757812 58.671875 48.828125 58.636719 48.894531 58.601562 C 48.929688 58.585938 48.964844 58.570312 49 58.554688 C 49.035156 58.535156 49.066406 58.523438 49.101562 58.503906 C 49.242188 58.441406 49.378906 58.378906 49.511719 58.316406 C 49.578125 58.285156 49.644531 58.253906 49.710938 58.222656 L 49.761719 58.199219 L 49.808594 58.175781 C 49.84375 58.160156 49.875 58.144531 49.910156 58.132812 C 50.042969 58.074219 50.171875 58.015625 50.296875 57.957031 C 50.464844 57.875 50.628906 57.800781 50.78125 57.710938 C 50.859375 57.664062 50.933594 57.617188 51.007812 57.566406 L 51.117188 57.496094 C 51.15625 57.472656 51.191406 57.445312 51.226562 57.421875 C 51.296875 57.371094 51.367188 57.316406 51.433594 57.261719 C 51.464844 57.234375 51.5 57.207031 51.53125 57.175781 L 51.582031 57.132812 L 51.628906 57.09375 C 51.757812 56.980469 51.878906 56.859375 51.996094 56.726562 C 52.453125 56.214844 52.8125 55.605469 53.078125 54.886719 C 53.132812 54.742188 53.1875 54.601562 53.238281 54.460938 C 53.292969 54.320312 53.351562 54.183594 53.402344 54.046875 C 53.429688 53.976562 53.457031 53.90625 53.484375 53.835938 C 53.515625 53.769531 53.542969 53.699219 53.570312 53.632812 C 53.628906 53.496094 53.683594 53.359375 53.742188 53.222656 C 53.800781 53.089844 53.859375 52.957031 53.917969 52.824219 C 53.933594 52.789062 53.949219 52.757812 53.964844 52.722656 C 53.976562 52.691406 53.992188 52.65625 54.007812 52.625 C 54.039062 52.558594 54.070312 52.492188 54.097656 52.429688 C 54.128906 52.363281 54.160156 52.296875 54.191406 52.234375 C 54.207031 52.199219 54.222656 52.167969 54.238281 52.136719 L 54.261719 52.085938 L 54.285156 52.039062 C 54.347656 51.910156 54.414062 51.78125 54.476562 51.65625 C 54.539062 51.527344 54.605469 51.40625 54.671875 51.285156 C 54.703125 51.222656 54.738281 51.160156 54.769531 51.097656 C 54.789062 51.066406 54.804688 51.039062 54.820312 51.007812 C 54.835938 50.976562 54.855469 50.945312 54.871094 50.917969 C 54.9375 50.796875 55.007812 50.679688 55.078125 50.558594 C 55.09375 50.53125 55.109375 50.5 55.128906 50.46875 C 55.144531 50.441406 55.164062 50.414062 55.179688 50.382812 C 55.214844 50.324219 55.25 50.269531 55.285156 50.210938 C 55.320312 50.152344 55.355469 50.097656 55.390625 50.039062 C 55.410156 50.011719 55.425781 49.984375 55.445312 49.957031 C 55.464844 49.929688 55.480469 49.902344 55.5 49.871094 C 55.570312 49.761719 55.644531 49.652344 55.714844 49.542969 C 55.753906 49.488281 55.789062 49.4375 55.828125 49.386719 C 55.863281 49.332031 55.898438 49.28125 55.9375 49.226562 C 55.972656 49.175781 56.011719 49.125 56.046875 49.074219 C 56.085938 49.019531 56.121094 48.972656 56.160156 48.921875 C 56.234375 48.824219 56.308594 48.726562 56.382812 48.628906 C 56.460938 48.53125 56.535156 48.441406 56.609375 48.347656 C 56.648438 48.300781 56.6875 48.253906 56.722656 48.210938 C 56.761719 48.164062 56.800781 48.121094 56.839844 48.078125 C 56.914062 47.992188 56.988281 47.90625 57.066406 47.824219 C 57.21875 47.660156 57.367188 47.5 57.515625 47.351562 C 57.554688 47.316406 57.589844 47.28125 57.625 47.246094 C 57.664062 47.207031 57.699219 47.171875 57.738281 47.140625 C 57.808594 47.070312 57.882812 47.003906 57.957031 46.941406 C 58.515625 46.425781 58.980469 46.070312 59.257812 45.859375 C 59.339844 45.796875 59.367188 45.714844 59.347656 45.632812 " fill-opacity="1" fill-rule="nonzero"/><g fill="#ffffff" fill-opacity="1"><g transform="translate(79.401437, 80.311447)"><g><path d="M 3.402344 0 L 6.339844 0 L 6.339844 -7.675781 L 11.3125 -7.675781 C 16.585938 -7.675781 19.988281 -10.710938 19.988281 -15.515625 C 19.988281 -20.289062 16.585938 -23.359375 11.3125 -23.359375 L 3.402344 -23.359375 Z M 6.339844 -10.410156 L 6.339844 -20.554688 L 11.246094 -20.554688 C 15.015625 -20.554688 16.984375 -18.820312 16.984375 -15.484375 C 16.984375 -12.148438 15.015625 -10.410156 11.246094 -10.410156 Z M 6.339844 -10.410156 "/></g></g></g><g fill="#ffffff" fill-opacity="1"><g transform="translate(106.691369, 80.311447)"><g><path d="M 0.566406 0 L 3.703125 0 L 5.839844 -5.304688 L 17.21875 -5.304688 L 19.421875 0 L 22.523438 0 L 12.914062 -23.359375 L 10.179688 -23.359375 Z M 6.972656 -8.042969 L 11.546875 -19.253906 L 16.117188 -8.042969 Z M 6.972656 -8.042969 "/></g></g></g><g fill="#ffffff" fill-opacity="1"><g transform="translate(135.749305, 80.311447)"><g><path d="M 3.402344 0 L 6.339844 0 L 6.339844 -7.675781 L 11.3125 -7.675781 C 16.585938 -7.675781 19.988281 -10.710938 19.988281 -15.515625 C 19.988281 -20.289062 16.585938 -23.359375 11.3125 -23.359375 L 3.402344 -23.359375 Z M 6.339844 -10.410156 L 6.339844 -20.554688 L 11.246094 -20.554688 C 15.015625 -20.554688 16.984375 -18.820312 16.984375 -15.484375 C 16.984375 -12.148438 15.015625 -10.410156 11.246094 -10.410156 Z M 6.339844 -10.410156 "/></g></g></g><g fill="#ffffff" fill-opacity="1"><g transform="translate(163.039238, 80.311447)"><g><path d="M 3.402344 0 L 17.953125 0 L 17.953125 -2.738281 L 6.339844 -2.738281 L 6.339844 -10.542969 L 16.75 -10.542969 L 16.75 -13.246094 L 6.339844 -13.246094 L 6.339844 -20.621094 L 17.585938 -20.621094 L 17.585938 -23.359375 L 3.402344 -23.359375 Z M 3.402344 0 "/></g></g></g><g fill="#ffffff" fill-opacity="1"><g transform="translate(189.128254, 80.311447)"><g><path d="M 3.402344 0 L 6.339844 0 L 6.339844 -8.375 L 11.480469 -8.375 L 17.1875 0 L 20.722656 0 L 14.851562 -8.675781 C 18.253906 -9.511719 20.355469 -12.078125 20.355469 -15.851562 C 20.355469 -20.488281 17.152344 -23.359375 12.3125 -23.359375 L 3.402344 -23.359375 Z M 6.339844 -11.179688 L 6.339844 -20.554688 L 11.980469 -20.554688 C 15.382812 -20.554688 17.351562 -18.820312 17.351562 -15.851562 C 17.351562 -12.878906 15.382812 -11.179688 11.980469 -11.179688 Z M 6.339844 -11.179688 "/></g></g></g><g fill="#ff00ff" fill-opacity="1"><g transform="translate(233.812725, 78.690497)"><g><path d="M 13.382812 0.5 C 19.820312 0.5 24.695312 -3.402344 25.695312 -9.34375 L 18.855469 -9.34375 C 18.019531 -7.140625 16.050781 -5.738281 13.515625 -5.738281 C 10.246094 -5.738281 7.976562 -8.175781 7.976562 -11.679688 C 7.976562 -15.214844 10.277344 -17.621094 13.582031 -17.621094 C 16.019531 -17.621094 18.054688 -16.25 18.753906 -14.148438 L 25.5625 -14.148438 C 24.359375 -20.054688 19.554688 -23.859375 13.316406 -23.859375 C 6.105469 -23.859375 1.132812 -18.886719 1.132812 -11.679688 C 1.132812 -4.472656 6.105469 0.5 13.382812 0.5 Z M 13.382812 0.5 "/></g></g></g><g fill="#ff00ff" fill-opacity="1"><g transform="translate(287.264343, 78.690497)"><g><path d="M 12.515625 0.5 C 18.820312 0.5 22.726562 -3.335938 22.726562 -9.609375 L 22.726562 -23.359375 L 16.019531 -23.359375 L 16.019531 -10.042969 C 16.019531 -7.273438 14.851562 -5.804688 12.515625 -5.804688 C 10.179688 -5.804688 9.011719 -7.273438 9.011719 -10.042969 L 9.011719 -23.359375 L 2.269531 -23.359375 L 2.269531 -9.609375 C 2.269531 -3.335938 6.207031 0.5 12.515625 0.5 Z M 12.515625 0.5 "/></g></g></g><g fill="#ff00ff" fill-opacity="1"><g transform="translate(338.981303, 78.690497)"><g><path d="M 8.042969 0 L 14.75 0 L 14.75 -17.117188 L 21.855469 -17.117188 L 21.855469 -23.359375 L 0.933594 -23.359375 L 0.933594 -17.117188 L 8.042969 -17.117188 Z M 8.042969 0 "/></g></g></g><g fill="#00ffff" fill-opacity="1"><g transform="translate(231.18749, 81.932395)"><g><path d="M 13.382812 0.5 C 19.820312 0.5 24.695312 -3.402344 25.695312 -9.34375 L 18.855469 -9.34375 C 18.019531 -7.140625 16.050781 -5.738281 13.515625 -5.738281 C 10.246094 -5.738281 7.976562 -8.175781 7.976562 -11.679688 C 7.976562 -15.214844 10.277344 -17.621094 13.582031 -17.621094 C 16.019531 -17.621094 18.054688 -16.25 18.753906 -14.148438 L 25.5625 -14.148438 C 24.359375 -20.054688 19.554688 -23.859375 13.316406 -23.859375 C 6.105469 -23.859375 1.132812 -18.886719 1.132812 -11.679688 C 1.132812 -4.472656 6.105469 0.5 13.382812 0.5 Z M 13.382812 0.5 "/></g></g></g><g fill="#00ffff" fill-opacity="1"><g transform="translate(284.639108, 81.932395)"><g><path d="M 12.515625 0.5 C 18.820312 0.5 22.726562 -3.335938 22.726562 -9.609375 L 22.726562 -23.359375 L 16.019531 -23.359375 L 16.019531 -10.042969 C 16.019531 -7.273438 14.851562 -5.804688 12.515625 -5.804688 C 10.179688 -5.804688 9.011719 -7.273438 9.011719 -10.042969 L 9.011719 -23.359375 L 2.269531 -23.359375 L 2.269531 -9.609375 C 2.269531 -3.335938 6.207031 0.5 12.515625 0.5 Z M 12.515625 0.5 "/></g></g></g><g fill="#00ffff" fill-opacity="1"><g transform="translate(336.356067, 81.932395)"><g><path d="M 8.042969 0 L 14.75 0 L 14.75 -17.117188 L 21.855469 -17.117188 L 21.855469 -23.359375 L 0.933594 -23.359375 L 0.933594 -17.117188 L 8.042969 -17.117188 Z M 8.042969 0 "/></g></g></g><g fill="#000000" fill-opacity="1"><g transform="translate(232.500107, 80.311447)"><g><path d="M 13.382812 0.5 C 19.820312 0.5 24.695312 -3.402344 25.695312 -9.34375 L 18.855469 -9.34375 C 18.019531 -7.140625 16.050781 -5.738281 13.515625 -5.738281 C 10.246094 -5.738281 7.976562 -8.175781 7.976562 -11.679688 C 7.976562 -15.214844 10.277344 -17.621094 13.582031 -17.621094 C 16.019531 -17.621094 18.054688 -16.25 18.753906 -14.148438 L 25.5625 -14.148438 C 24.359375 -20.054688 19.554688 -23.859375 13.316406 -23.859375 C 6.105469 -23.859375 1.132812 -18.886719 1.132812 -11.679688 C 1.132812 -4.472656 6.105469 0.5 13.382812 0.5 Z M 13.382812 0.5 "/></g></g></g><g fill="#000000" fill-opacity="1"><g transform="translate(285.951725, 80.311447)"><g><path d="M 12.515625 0.5 C 18.820312 0.5 22.726562 -3.335938 22.726562 -9.609375 L 22.726562 -23.359375 L 16.019531 -23.359375 L 16.019531 -10.042969 C 16.019531 -7.273438 14.851562 -5.804688 12.515625 -5.804688 C 10.179688 -5.804688 9.011719 -7.273438 9.011719 -10.042969 L 9.011719 -23.359375 L 2.269531 -23.359375 L 2.269531 -9.609375 C 2.269531 -3.335938 6.207031 0.5 12.515625 0.5 Z M 12.515625 0.5 "/></g></g></g><g fill="#000000" fill-opacity="1"><g transform="translate(337.668685, 80.311447)"><g><path d="M 8.042969 0 L 14.75 0 L 14.75 -17.117188 L 21.855469 -17.117188 L 21.855469 -23.359375 L 0.933594 -23.359375 L 0.933594 -17.117188 L 8.042969 -17.117188 Z M 8.042969 0 "/></g></g></g></svg>